COMMENT c64
STARTFONT 2.1
FONT c64
SIZE 16 75 75
FONTBOUNDINGBOX 16 16 0 -4
STARTPROPERTIES 3
FONT_DESCENT 4
FONT_ASCENT 12 
DEFAULT_CHAR 0 
ENDPROPERTIES
CHARS 95
STARTCHAR C0032
ENCODING 32
SWIDTH 666 0
DWIDTH 16 0
BBX 16 16 0 -4
BITMAP
0000
0000
0000
0000
0000
0000
0000
0000
0000
0000
0000
0000
0000
0000
0000
0000
ENDCHAR
STARTCHAR C0033
ENCODING 33
SWIDTH 666 0
DWIDTH 16 0
BBX 16 16 0 -4
BITMAP
03c0
03c0
03c0
03c0
03c0
03c0
03c0
03c0
0000
0000
0000
0000
03c0
03c0
0000
0000
ENDCHAR
STARTCHAR C0034
ENCODING 34
SWIDTH 666 0
DWIDTH 16 0
BBX 16 16 0 -4
BITMAP
3c3c
3c3c
3c3c
3c3c
3c3c
3c3c
0000
0000
0000
0000
0000
0000
0000
0000
0000
0000
ENDCHAR
STARTCHAR C0035
ENCODING 35
SWIDTH 666 0
DWIDTH 16 0
BBX 16 16 0 -4
BITMAP
3c3c
3c3c
3c3c
3c3c
ffff
ffff
3c3c
3c3c
ffff
ffff
3c3c
3c3c
3c3c
3c3c
0000
0000
ENDCHAR
STARTCHAR C0036
ENCODING 36
SWIDTH 666 0
DWIDTH 16 0
BBX 16 16 0 -4
BITMAP
03c0
03c0
0ffc
0ffc
3c00
3c00
0ff0
0ff0
003c
003c
3ff0
3ff0
03c0
03c0
0000
0000
ENDCHAR
STARTCHAR C0037
ENCODING 37
SWIDTH 666 0
DWIDTH 16 0
BBX 16 16 0 -4
BITMAP
3c0c
3c0c
3c3c
3c3c
00f0
00f0
03c0
03c0
0f00
0f00
3c3c
3c3c
303c
303c
0000
0000
ENDCHAR
STARTCHAR C0038
ENCODING 38
SWIDTH 666 0
DWIDTH 16 0
BBX 16 16 0 -4
BITMAP
0ff0
0ff0
3c3c
3c3c
0ff0
0ff0
0fc0
0fc0
3c3f
3c3f
3c3c
3c3c
0fff
0fff
0000
0000
ENDCHAR
STARTCHAR C0039
ENCODING 39
SWIDTH 666 0
DWIDTH 16 0
BBX 16 16 0 -4
BITMAP
003c
003c
00f0
00f0
03c0
03c0
0000
0000
0000
0000
0000
0000
0000
0000
0000
0000
ENDCHAR
STARTCHAR C0040
ENCODING 40
SWIDTH 666 0
DWIDTH 16 0
BBX 16 16 0 -4
BITMAP
00f0
00f0
03c0
03c0
0f00
0f00
0f00
0f00
0f00
0f00
03c0
03c0
00f0
00f0
0000
0000
ENDCHAR
STARTCHAR C0041
ENCODING 41
SWIDTH 666 0
DWIDTH 16 0
BBX 16 16 0 -4
BITMAP
0f00
0f00
03c0
03c0
00f0
00f0
00f0
00f0
00f0
00f0
03c0
03c0
0f00
0f00
0000
0000
ENDCHAR
STARTCHAR C0042
ENCODING 42
SWIDTH 666 0
DWIDTH 16 0
BBX 16 16 0 -4
BITMAP
0000
0000
3c3c
3c3c
0ff0
0ff0
ffff
ffff
0ff0
0ff0
3c3c
3c3c
0000
0000
0000
0000
ENDCHAR
STARTCHAR C0043
ENCODING 43
SWIDTH 666 0
DWIDTH 16 0
BBX 16 16 0 -4
BITMAP
0000
0000
03c0
03c0
03c0
03c0
3ffc
3ffc
03c0
03c0
03c0
03c0
0000
0000
0000
0000
ENDCHAR
STARTCHAR C0044
ENCODING 44
SWIDTH 666 0
DWIDTH 16 0
BBX 16 16 0 -4
BITMAP
0000
0000
0000
0000
0000
0000
0000
0000
0000
0000
03c0
03c0
03c0
03c0
0f00
0f00
ENDCHAR
STARTCHAR C0045
ENCODING 45
SWIDTH 666 0
DWIDTH 16 0
BBX 16 16 0 -4
BITMAP
0000
0000
0000
0000
0000
0000
3ffc
3ffc
0000
0000
0000
0000
0000
0000
0000
0000
ENDCHAR
STARTCHAR C0046
ENCODING 46
SWIDTH 666 0
DWIDTH 16 0
BBX 16 16 0 -4
BITMAP
0000
0000
0000
0000
0000
0000
0000
0000
0000
0000
03c0
03c0
03c0
03c0
0000
0000
ENDCHAR
STARTCHAR C0047
ENCODING 47
SWIDTH 666 0
DWIDTH 16 0
BBX 16 16 0 -4
BITMAP
0000
0000
000f
000f
003c
003c
00f0
00f0
03c0
03c0
0f00
0f00
3c00
3c00
0000
0000
ENDCHAR
STARTCHAR C0048
ENCODING 48
SWIDTH 666 0
DWIDTH 16 0
BBX 16 16 0 -4
BITMAP
0ff0
0ff0
3c3c
3c3c
3cfc
3cfc
3f3c
3f3c
3c3c
3c3c
3c3c
3c3c
0ff0
0ff0
0000
0000
ENDCHAR
STARTCHAR C0049
ENCODING 49
SWIDTH 666 0
DWIDTH 16 0
BBX 16 16 0 -4
BITMAP
03c0
03c0
03c0
03c0
0fc0
0fc0
03c0
03c0
03c0
03c0
03c0
03c0
3ffc
3ffc
0000
0000
ENDCHAR
STARTCHAR C0050
ENCODING 50
SWIDTH 666 0
DWIDTH 16 0
BBX 16 16 0 -4
BITMAP
0ff0
0ff0
3c3c
3c3c
003c
003c
00f0
00f0
0f00
0f00
3c00
3c00
3ffc
3ffc
0000
0000
ENDCHAR
STARTCHAR C0051
ENCODING 51
SWIDTH 666 0
DWIDTH 16 0
BBX 16 16 0 -4
BITMAP
0ff0
0ff0
3c3c
3c3c
003c
003c
03f0
03f0
003c
003c
3c3c
3c3c
0ff0
0ff0
0000
0000
ENDCHAR
STARTCHAR C0052
ENCODING 52
SWIDTH 666 0
DWIDTH 16 0
BBX 16 16 0 -4
BITMAP
003c
003c
00fc
00fc
03fc
03fc
3c3c
3c3c
3fff
3fff
003c
003c
003c
003c
0000
0000
ENDCHAR
STARTCHAR C0053
ENCODING 53
SWIDTH 666 0
DWIDTH 16 0
BBX 16 16 0 -4
BITMAP
3ffc
3ffc
3c00
3c00
3ff0
3ff0
003c
003c
003c
003c
3c3c
3c3c
0ff0
0ff0
0000
0000
ENDCHAR
STARTCHAR C0054
ENCODING 54
SWIDTH 666 0
DWIDTH 16 0
BBX 16 16 0 -4
BITMAP
0ff0
0ff0
3c3c
3c3c
3c00
3c00
3ff0
3ff0
3c3c
3c3c
3c3c
3c3c
0ff0
0ff0
0000
0000
ENDCHAR
STARTCHAR C0055
ENCODING 55
SWIDTH 666 0
DWIDTH 16 0
BBX 16 16 0 -4
BITMAP
3ffc
3ffc
3c3c
3c3c
00f0
00f0
03c0
03c0
03c0
03c0
03c0
03c0
03c0
03c0
0000
0000
ENDCHAR
STARTCHAR C0056
ENCODING 56
SWIDTH 666 0
DWIDTH 16 0
BBX 16 16 0 -4
BITMAP
0ff0
0ff0
3c3c
3c3c
3c3c
3c3c
0ff0
0ff0
3c3c
3c3c
3c3c
3c3c
0ff0
0ff0
0000
0000
ENDCHAR
STARTCHAR C0057
ENCODING 57
SWIDTH 666 0
DWIDTH 16 0
BBX 16 16 0 -4
BITMAP
0ff0
0ff0
3c3c
3c3c
3c3c
3c3c
0ffc
0ffc
003c
003c
3c3c
3c3c
0ff0
0ff0
0000
0000
ENDCHAR
STARTCHAR C0058
ENCODING 58
SWIDTH 666 0
DWIDTH 16 0
BBX 16 16 0 -4
BITMAP
0000
0000
0000
0000
03c0
03c0
0000
0000
0000
0000
03c0
03c0
0000
0000
0000
0000
ENDCHAR
STARTCHAR C0059
ENCODING 59
SWIDTH 666 0
DWIDTH 16 0
BBX 16 16 0 -4
BITMAP
0000
0000
0000
0000
03c0
03c0
0000
0000
0000
0000
03c0
03c0
03c0
03c0
0f00
0f00
ENDCHAR
STARTCHAR C0060
ENCODING 60
SWIDTH 666 0
DWIDTH 16 0
BBX 16 16 0 -4
BITMAP
00fc
00fc
03c0
03c0
0f00
0f00
3c00
3c00
0f00
0f00
03c0
03c0
00fc
00fc
0000
0000
ENDCHAR
STARTCHAR C0061
ENCODING 61
SWIDTH 666 0
DWIDTH 16 0
BBX 16 16 0 -4
BITMAP
0000
0000
0000
0000
3ffc
3ffc
0000
0000
3ffc
3ffc
0000
0000
0000
0000
0000
0000
ENDCHAR
STARTCHAR C0062
ENCODING 62
SWIDTH 666 0
DWIDTH 16 0
BBX 16 16 0 -4
BITMAP
3f00
3f00
03c0
03c0
00f0
00f0
003c
003c
00f0
00f0
03c0
03c0
3f00
3f00
0000
0000
ENDCHAR
STARTCHAR C0063
ENCODING 63
SWIDTH 666 0
DWIDTH 16 0
BBX 16 16 0 -4
BITMAP
0ff0
0ff0
3c3c
3c3c
003c
003c
00f0
00f0
03c0
03c0
0000
0000
03c0
03c0
0000
0000
ENDCHAR
STARTCHAR C0000
ENCODING 64
SWIDTH 666 0
DWIDTH 16 0
BBX 16 16 0 -4
BITMAP
0ff0
0ff0
3c3c
3c3c
3cfc
3cfc
3cfc
3cfc
3c00
3c00
3c0c
3c0c
0ff0
0ff0
0000
0000
ENDCHAR
STARTCHAR C0001
ENCODING 65
SWIDTH 666 0
DWIDTH 16 0
BBX 16 16 0 -4
BITMAP
03c0
03c0
0ff0
0ff0
3c3c
3c3c
3ffc
3ffc
3c3c
3c3c
3c3c
3c3c
3c3c
3c3c
0000
0000
ENDCHAR
STARTCHAR C0002
ENCODING 66
SWIDTH 666 0
DWIDTH 16 0
BBX 16 16 0 -4
BITMAP
3ff0
3ff0
3c3c
3c3c
3c3c
3c3c
3ff0
3ff0
3c3c
3c3c
3c3c
3c3c
3ff0
3ff0
0000
0000
ENDCHAR
STARTCHAR C0003
ENCODING 67
SWIDTH 666 0
DWIDTH 16 0
BBX 16 16 0 -4
BITMAP
0ff0
0ff0
3c3c
3c3c
3c00
3c00
3c00
3c00
3c00
3c00
3c3c
3c3c
0ff0
0ff0
0000
0000
ENDCHAR
STARTCHAR C0004
ENCODING 68
SWIDTH 666 0
DWIDTH 16 0
BBX 16 16 0 -4
BITMAP
3fc0
3fc0
3cf0
3cf0
3c3c
3c3c
3c3c
3c3c
3c3c
3c3c
3cf0
3cf0
3fc0
3fc0
0000
0000
ENDCHAR
STARTCHAR C0005
ENCODING 69
SWIDTH 666 0
DWIDTH 16 0
BBX 16 16 0 -4
BITMAP
3ffc
3ffc
3c00
3c00
3c00
3c00
3fc0
3fc0
3c00
3c00
3c00
3c00
3ffc
3ffc
0000
0000
ENDCHAR
STARTCHAR C0006
ENCODING 70
SWIDTH 666 0
DWIDTH 16 0
BBX 16 16 0 -4
BITMAP
3ffc
3ffc
3c00
3c00
3c00
3c00
3fc0
3fc0
3c00
3c00
3c00
3c00
3c00
3c00
0000
0000
ENDCHAR
STARTCHAR C0007
ENCODING 71
SWIDTH 666 0
DWIDTH 16 0
BBX 16 16 0 -4
BITMAP
0ff0
0ff0
3c3c
3c3c
3c00
3c00
3cfc
3cfc
3c3c
3c3c
3c3c
3c3c
0ff0
0ff0
0000
0000
ENDCHAR
STARTCHAR C0008
ENCODING 72
SWIDTH 666 0
DWIDTH 16 0
BBX 16 16 0 -4
BITMAP
3c3c
3c3c
3c3c
3c3c
3c3c
3c3c
3ffc
3ffc
3c3c
3c3c
3c3c
3c3c
3c3c
3c3c
0000
0000
ENDCHAR
STARTCHAR C0009
ENCODING 73
SWIDTH 666 0
DWIDTH 16 0
BBX 16 16 0 -4
BITMAP
0ff0
0ff0
03c0
03c0
03c0
03c0
03c0
03c0
03c0
03c0
03c0
03c0
0ff0
0ff0
0000
0000
ENDCHAR
STARTCHAR C0010
ENCODING 74
SWIDTH 666 0
DWIDTH 16 0
BBX 16 16 0 -4
BITMAP
03fc
03fc
00f0
00f0
00f0
00f0
00f0
00f0
00f0
00f0
3cf0
3cf0
0fc0
0fc0
0000
0000
ENDCHAR
STARTCHAR C0011
ENCODING 75
SWIDTH 666 0
DWIDTH 16 0
BBX 16 16 0 -4
BITMAP
3c3c
3c3c
3cf0
3cf0
3fc0
3fc0
3f00
3f00
3fc0
3fc0
3cf0
3cf0
3c3c
3c3c
0000
0000
ENDCHAR
STARTCHAR C0012
ENCODING 76
SWIDTH 666 0
DWIDTH 16 0
BBX 16 16 0 -4
BITMAP
3c00
3c00
3c00
3c00
3c00
3c00
3c00
3c00
3c00
3c00
3c00
3c00
3ffc
3ffc
0000
0000
ENDCHAR
STARTCHAR C0013
ENCODING 77
SWIDTH 666 0
DWIDTH 16 0
BBX 16 16 0 -4
BITMAP
3c0f
3c0f
3f3f
3f3f
3fff
3fff
3ccf
3ccf
3c0f
3c0f
3c0f
3c0f
3c0f
3c0f
0000
0000
ENDCHAR
STARTCHAR C0014
ENCODING 78
SWIDTH 666 0
DWIDTH 16 0
BBX 16 16 0 -4
BITMAP
3c3c
3c3c
3f3c
3f3c
3ffc
3ffc
3ffc
3ffc
3cfc
3cfc
3c3c
3c3c
3c3c
3c3c
0000
0000
ENDCHAR
STARTCHAR C0015
ENCODING 79
SWIDTH 666 0
DWIDTH 16 0
BBX 16 16 0 -4
BITMAP
0ff0
0ff0
3c3c
3c3c
3c3c
3c3c
3c3c
3c3c
3c3c
3c3c
3c3c
3c3c
0ff0
0ff0
0000
0000
ENDCHAR
STARTCHAR C0016
ENCODING 80
SWIDTH 666 0
DWIDTH 16 0
BBX 16 16 0 -4
BITMAP
3ff0
3ff0
3c3c
3c3c
3c3c
3c3c
3ff0
3ff0
3c00
3c00
3c00
3c00
3c00
3c00
0000
0000
ENDCHAR
STARTCHAR C0017
ENCODING 81
SWIDTH 666 0
DWIDTH 16 0
BBX 16 16 0 -4
BITMAP
0ff0
0ff0
3c3c
3c3c
3c3c
3c3c
3c3c
3c3c
3c3c
3c3c
0ff0
0ff0
00fc
00fc
0000
0000
ENDCHAR
STARTCHAR C0018
ENCODING 82
SWIDTH 666 0
DWIDTH 16 0
BBX 16 16 0 -4
BITMAP
3ff0
3ff0
3c3c
3c3c
3c3c
3c3c
3ff0
3ff0
3fc0
3fc0
3cf0
3cf0
3c3c
3c3c
0000
0000
ENDCHAR
STARTCHAR C0019
ENCODING 83
SWIDTH 666 0
DWIDTH 16 0
BBX 16 16 0 -4
BITMAP
0ff0
0ff0
3c3c
3c3c
3c00
3c00
0ff0
0ff0
003c
003c
3c3c
3c3c
0ff0
0ff0
0000
0000
ENDCHAR
STARTCHAR C0020
ENCODING 84
SWIDTH 666 0
DWIDTH 16 0
BBX 16 16 0 -4
BITMAP
3ffc
3ffc
03c0
03c0
03c0
03c0
03c0
03c0
03c0
03c0
03c0
03c0
03c0
03c0
0000
0000
ENDCHAR
STARTCHAR C0021
ENCODING 85
SWIDTH 666 0
DWIDTH 16 0
BBX 16 16 0 -4
BITMAP
3c3c
3c3c
3c3c
3c3c
3c3c
3c3c
3c3c
3c3c
3c3c
3c3c
3c3c
3c3c
0ff0
0ff0
0000
0000
ENDCHAR
STARTCHAR C0022
ENCODING 86
SWIDTH 666 0
DWIDTH 16 0
BBX 16 16 0 -4
BITMAP
3c3c
3c3c
3c3c
3c3c
3c3c
3c3c
3c3c
3c3c
3c3c
3c3c
0ff0
0ff0
03c0
03c0
0000
0000
ENDCHAR
STARTCHAR C0023
ENCODING 87
SWIDTH 666 0
DWIDTH 16 0
BBX 16 16 0 -4
BITMAP
3c0f
3c0f
3c0f
3c0f
3c0f
3c0f
3ccf
3ccf
3fff
3fff
3f3f
3f3f
3c0f
3c0f
0000
0000
ENDCHAR
STARTCHAR C0024
ENCODING 88
SWIDTH 666 0
DWIDTH 16 0
BBX 16 16 0 -4
BITMAP
3c3c
3c3c
3c3c
3c3c
0ff0
0ff0
03c0
03c0
0ff0
0ff0
3c3c
3c3c
3c3c
3c3c
0000
0000
ENDCHAR
STARTCHAR C0025
ENCODING 89
SWIDTH 666 0
DWIDTH 16 0
BBX 16 16 0 -4
BITMAP
3c3c
3c3c
3c3c
3c3c
3c3c
3c3c
0ff0
0ff0
03c0
03c0
03c0
03c0
03c0
03c0
0000
0000
ENDCHAR
STARTCHAR C0026
ENCODING 90
SWIDTH 666 0
DWIDTH 16 0
BBX 16 16 0 -4
BITMAP
3ffc
3ffc
003c
003c
00f0
00f0
03c0
03c0
0f00
0f00
3c00
3c00
3ffc
3ffc
0000
0000
ENDCHAR
STARTCHAR C0027
ENCODING 91
SWIDTH 666 0
DWIDTH 16 0
BBX 16 16 0 -4
BITMAP
0ff0
0ff0
0f00
0f00
0f00
0f00
0f00
0f00
0f00
0f00
0f00
0f00
0ff0
0ff0
0000
0000
ENDCHAR
STARTCHAR C0028
ENCODING 92
SWIDTH 666 0
DWIDTH 16 0
BBX 16 16 0 -4
BITMAP
0000
0000
3c00
3c00
0f00
0f00
03c0
03c0
00f0
00f0
003c
003c
000f
000f
0000
0000
ENDCHAR
STARTCHAR C0029
ENCODING 93
SWIDTH 666 0
DWIDTH 16 0
BBX 16 16 0 -4
BITMAP
0ff0
0ff0
00f0
00f0
00f0
00f0
00f0
00f0
00f0
00f0
00f0
00f0
0ff0
0ff0
0000
0000
ENDCHAR
STARTCHAR C0030
ENCODING 94
SWIDTH 666 0
DWIDTH 16 0
BBX 16 16 0 -4
BITMAP
0000
0000
03c0
03c0
0ff0
0ff0
3ffc
3ffc
03c0
03c0
03c0
03c0
03c0
03c0
03c0
03c0
ENDCHAR
STARTCHAR C0031
ENCODING 95
SWIDTH 666 0
DWIDTH 16 0
BBX 16 16 0 -4
BITMAP
0000
0000
0000
0000
0000
0000
0000
0000
0000
0000
0000
0000
0000
0000
ffff
ffff
ENDCHAR
STARTCHAR C0032
ENCODING 96
SWIDTH 666 0
DWIDTH 16 0
BBX 16 16 0 -4
BITMAP
3c00
3c00
0f00
0f00
03c0
03c0
0000
0000
0000
0000
0000
0000
0000
0000
0000
0000
ENDCHAR
STARTCHAR C0257
ENCODING 97
SWIDTH 666 0
DWIDTH 16 0
BBX 16 16 0 -4
BITMAP
0000
0000
0000
0000
0ff0
0ff0
003c
003c
0ffc
0ffc
3c3c
3c3c
0ffc
0ffc
0000
0000
ENDCHAR
STARTCHAR C0258
ENCODING 98
SWIDTH 666 0
DWIDTH 16 0
BBX 16 16 0 -4
BITMAP
0000
0000
3c00
3c00
3c00
3c00
3ff0
3ff0
3c3c
3c3c
3c3c
3c3c
3ff0
3ff0
0000
0000
ENDCHAR
STARTCHAR C0259
ENCODING 99
SWIDTH 666 0
DWIDTH 16 0
BBX 16 16 0 -4
BITMAP
0000
0000
0000
0000
0ff0
0ff0
3c00
3c00
3c00
3c00
3c00
3c00
0ff0
0ff0
0000
0000
ENDCHAR
STARTCHAR C0260
ENCODING 100
SWIDTH 666 0
DWIDTH 16 0
BBX 16 16 0 -4
BITMAP
0000
0000
003c
003c
003c
003c
0ffc
0ffc
3c3c
3c3c
3c3c
3c3c
0ffc
0ffc
0000
0000
ENDCHAR
STARTCHAR C0261
ENCODING 101
SWIDTH 666 0
DWIDTH 16 0
BBX 16 16 0 -4
BITMAP
0000
0000
0000
0000
0ff0
0ff0
3c3c
3c3c
3ffc
3ffc
3c00
3c00
0ff0
0ff0
0000
0000
ENDCHAR
STARTCHAR C0262
ENCODING 102
SWIDTH 666 0
DWIDTH 16 0
BBX 16 16 0 -4
BITMAP
0000
0000
00fc
00fc
03c0
03c0
0ffc
0ffc
03c0
03c0
03c0
03c0
03c0
03c0
0000
0000
ENDCHAR
STARTCHAR C0263
ENCODING 103
SWIDTH 666 0
DWIDTH 16 0
BBX 16 16 0 -4
BITMAP
0000
0000
0000
0000
0ffc
0ffc
3c3c
3c3c
3c3c
3c3c
0ffc
0ffc
003c
003c
3ff0
3ff0
ENDCHAR
STARTCHAR C0264
ENCODING 104
SWIDTH 666 0
DWIDTH 16 0
BBX 16 16 0 -4
BITMAP
0000
0000
3c00
3c00
3c00
3c00
3ff0
3ff0
3c3c
3c3c
3c3c
3c3c
3c3c
3c3c
0000
0000
ENDCHAR
STARTCHAR C0265
ENCODING 105
SWIDTH 666 0
DWIDTH 16 0
BBX 16 16 0 -4
BITMAP
0000
0000
03c0
03c0
0000
0000
0fc0
0fc0
03c0
03c0
03c0
03c0
0ff0
0ff0
0000
0000
ENDCHAR
STARTCHAR C0266
ENCODING 106
SWIDTH 666 0
DWIDTH 16 0
BBX 16 16 0 -4
BITMAP
0000
0000
003c
003c
0000
0000
003c
003c
003c
003c
003c
003c
003c
003c
0ff0
0ff0
ENDCHAR
STARTCHAR C0267
ENCODING 107
SWIDTH 666 0
DWIDTH 16 0
BBX 16 16 0 -4
BITMAP
0000
0000
3c00
3c00
3c00
3c00
3cf0
3cf0
3fc0
3fc0
3cf0
3cf0
3c3c
3c3c
0000
0000
ENDCHAR
STARTCHAR C0268
ENCODING 108
SWIDTH 666 0
DWIDTH 16 0
BBX 16 16 0 -4
BITMAP
0000
0000
0fc0
0fc0
03c0
03c0
03c0
03c0
03c0
03c0
03c0
03c0
0ff0
0ff0
0000
0000
ENDCHAR
STARTCHAR C0269
ENCODING 109
SWIDTH 666 0
DWIDTH 16 0
BBX 16 16 0 -4
BITMAP
0000
0000
0000
0000
3c3c
3c3c
3fff
3fff
3fff
3fff
3ccf
3ccf
3c0f
3c0f
0000
0000
ENDCHAR
STARTCHAR C0270
ENCODING 110
SWIDTH 666 0
DWIDTH 16 0
BBX 16 16 0 -4
BITMAP
0000
0000
0000
0000
3ff0
3ff0
3c3c
3c3c
3c3c
3c3c
3c3c
3c3c
3c3c
3c3c
0000
0000
ENDCHAR
STARTCHAR C0271
ENCODING 111
SWIDTH 666 0
DWIDTH 16 0
BBX 16 16 0 -4
BITMAP
0000
0000
0000
0000
0ff0
0ff0
3c3c
3c3c
3c3c
3c3c
3c3c
3c3c
0ff0
0ff0
0000
0000
ENDCHAR
STARTCHAR C0272
ENCODING 112
SWIDTH 666 0
DWIDTH 16 0
BBX 16 16 0 -4
BITMAP
0000
0000
0000
0000
3ff0
3ff0
3c3c
3c3c
3c3c
3c3c
3ff0
3ff0
3c00
3c00
3c00
3c00
ENDCHAR
STARTCHAR C0273
ENCODING 113
SWIDTH 666 0
DWIDTH 16 0
BBX 16 16 0 -4
BITMAP
0000
0000
0000
0000
0ffc
0ffc
3c3c
3c3c
3c3c
3c3c
0ffc
0ffc
003c
003c
003c
003c
ENDCHAR
STARTCHAR C0274
ENCODING 114
SWIDTH 666 0
DWIDTH 16 0
BBX 16 16 0 -4
BITMAP
0000
0000
0000
0000
3ff0
3ff0
3c3c
3c3c
3c00
3c00
3c00
3c00
3c00
3c00
0000
0000
ENDCHAR
STARTCHAR C0275
ENCODING 115
SWIDTH 666 0
DWIDTH 16 0
BBX 16 16 0 -4
BITMAP
0000
0000
0000
0000
0ffc
0ffc
3c00
3c00
0ff0
0ff0
003c
003c
3ff0
3ff0
0000
0000
ENDCHAR
STARTCHAR C0276
ENCODING 116
SWIDTH 666 0
DWIDTH 16 0
BBX 16 16 0 -4
BITMAP
0000
0000
03c0
03c0
3ffc
3ffc
03c0
03c0
03c0
03c0
03c0
03c0
00fc
00fc
0000
0000
ENDCHAR
STARTCHAR C0277
ENCODING 117
SWIDTH 666 0
DWIDTH 16 0
BBX 16 16 0 -4
BITMAP
0000
0000
0000
0000
3c3c
3c3c
3c3c
3c3c
3c3c
3c3c
3c3c
3c3c
0ffc
0ffc
0000
0000
ENDCHAR
STARTCHAR C0278
ENCODING 118
SWIDTH 666 0
DWIDTH 16 0
BBX 16 16 0 -4
BITMAP
0000
0000
0000
0000
3c3c
3c3c
3c3c
3c3c
3c3c
3c3c
0ff0
0ff0
03c0
03c0
0000
0000
ENDCHAR
STARTCHAR C0279
ENCODING 119
SWIDTH 666 0
DWIDTH 16 0
BBX 16 16 0 -4
BITMAP
0000
0000
0000
0000
3c0f
3c0f
3ccf
3ccf
3fff
3fff
0ffc
0ffc
0f3c
0f3c
0000
0000
ENDCHAR
STARTCHAR C0280
ENCODING 120
SWIDTH 666 0
DWIDTH 16 0
BBX 16 16 0 -4
BITMAP
0000
0000
0000
0000
3c3c
3c3c
0ff0
0ff0
03c0
03c0
0ff0
0ff0
3c3c
3c3c
0000
0000
ENDCHAR
STARTCHAR C0281
ENCODING 121
SWIDTH 666 0
DWIDTH 16 0
BBX 16 16 0 -4
BITMAP
0000
0000
0000
0000
3c3c
3c3c
3c3c
3c3c
3c3c
3c3c
0ffc
0ffc
00f0
00f0
3fc0
3fc0
ENDCHAR
STARTCHAR C0282
ENCODING 122
SWIDTH 666 0
DWIDTH 16 0
BBX 16 16 0 -4
BITMAP
0000
0000
0000
0000
3ffc
3ffc
00f0
00f0
03c0
03c0
0f00
0f00
3ffc
3ffc
0000
0000
ENDCHAR
STARTCHAR C0123
ENCODING 123
SWIDTH 666 0
DWIDTH 16 0
BBX 16 16 0 -4
BITMAP
03f0
03f0
0f00
0f00
0f00
0f00
3c00
3c00
0f00
0f00
0f00
0f00
03f0
03f0
0000
0000
ENDCHAR
STARTCHAR C0349
ENCODING 124
SWIDTH 666 0
DWIDTH 16 0
BBX 16 16 0 -4
BITMAP
03c0
03c0
03c0
03c0
03c0
03c0
03c0
03c0
03c0
03c0
03c0
03c0
03c0
03c0
03c0
03c0
ENDCHAR
STARTCHAR C0125
ENCODING 125
SWIDTH 666 0
DWIDTH 16 0
BBX 16 16 0 -4
BITMAP
0fc0
0fc0
00f0
00f0
00f0
00f0
003c
003c
00f0
00f0
00f0
00f0
0fc0
0fc0
0000
0000
ENDCHAR
STARTCHAR C0126
ENCODING 126
SWIDTH 666 0
DWIDTH 16 0
BBX 16 16 0 -4
BITMAP
0000
0000
0f0c
0f0c
30f0
30f0
0000
0000
0000
0000
0000
0000
0000
0000
0000
0000
ENDCHAR
ENDFONT
